<svg xmlns="http://www.w3.org/2000/svg" 
	xmlns:xlink="http://www.w3.org/1999/xlink" 
	width="100%" 
	height="100%" 
	id="kw-logo"       
    viewBox="0 0 1400 140"
    version="1.1">
    <defs>
      <path id="K" d="m0 20 
        a12 12 0 0 1 25 0 
        v35 
        h25 
        l40 -46 
        a12 12 0 0 1 15 20 
        l-38 42
        l43 43
        a12 12 0 0 1 -20 15 
        l-47 -50
        h-18
        v45
        a12 12 0 0 1 -25 0 
        z" />
      <circle id="O" 
        cx="" 
        cy="72" 
        r="52"  
        fill="transparent" 
        stroke="black"
        stroke-width="25"/>
      <path id="D" d="m0 20 
        a10 10 0 0 1 10 -10 
        h45 
        a60 60 0 0 1 0 123 
        h-45
        a10 10 0 0 1 -10 -10 
        z
        m25 13
        v77
        h30
        a35 35 0 0 0 0 -77
        z" />
      <path id="E" d="m0 20 
        a10 10 0 0 1 10 -10 
        h85
        a10 10 0 0 1 0 24
        h-70
        v25
        h52
        a10 10 0 0 1 0 24
        h-52
        v28
        h70
        a10 10 0 0 1 0 24 
        h-85
        a10 10 0 0 1 -10 -10 
        z" />
      <path id="W" d="m0 16 
        a10 10 0 0 1 25 0 
        v76
        l30 -30
        a12 12 0 0 1 18 0
        l30 30
        v-76
        a10 10 0 0 1 25 0
        v110
        a12 12 0 0 1 -20 5 
        l-44 -40
        l-44 40
        a12 12 0 0 1 -20 -5 
        z" />
      <path id="R" d="m0 16  
        a10 10 0 0 1 10 -8 
        h60
        a40 40 0 0 1 11 78
        l29 32
        a10 10 0 0 1 -16 15
        l-44 -45
        h-25
        v35
        a12 12 0 0 1 -25 0 
        z
        M25 32
        v32
        h45
        a15 15 0 0 0 0 -32 
        z" />
      <path id="S" d="m0 112 
        a20 20 0 0 0 20 -18 
        v-40 
        a45 45 0 0 1 45 -45 
        a12 12 0 0 1 0 25 
        a20 20 0 0 0 -20 18
        v40 
        a45 45 0 0 1 -45 45
        a12 12 0 0 1 0 -25
        z" />
      <path id="A" d="m0 122 
        v-65
        a20 20 0 0 1 5 -15
        l40 -40 
        a12 12 0 0 1 10 0 
        l40 40 
        a20 20 0 0 1 5 15 
        v65 
        a12 12 0 0 1 -25 0
        v-20
        h-50
        v20
        a12 12 0 0 1 -25 0
        z
        m25 -45
        h50
        v-20
        a15 15 0 0 0 -5 -5
        l-15 -15
        a12 12 0 0 0 -10 0
        l-15 15
        a15 15 0 0 0 -5 5
        v20
        z
        " />
    </defs>
	  <g id="kodeworks1">   
		<g class="letters" >
		  <use x="25" y="50" xlink:href="#K" />
		  <use x="225" y="50" xlink:href="#O" />
		  <use x="335" y="50" xlink:href="#D" />
		  <use x="500" y="50" xlink:href="#E" />
		  <use x="656" y="50" xlink:href="#W" />
		  <use x="895" y="50" xlink:href="#O" />
		  <use x="1010" y="50" xlink:href="#R" />
		  <use x="1170" y="50" xlink:href="#K" />
		  <use x="1310" y="50" xlink:href="#S" />
		</g>
	</g>
</svg>